# xmcd
#
# Track frame offsets: 
#        150
#        10898
#        21977
#        33516
#        42433
#        55121
#        68498
#        80800
#        93434
#        112146
#        130137
#        136650
#
# Disc length: 2028 seconds
#
# Revision: 0
# Processed by: cddbd v1.5.2PL0 Copyright (c) Steve Scherf et al.
# Submitted via: ExactAudioCopy v0.95b4
#
DISCID=9e07ea0c
DTITLE=Various Artist - Country Gospel Favorites CD1
DYEAR=2005
DGENRE=Gospel
TTITLE0=Ferlin Husky - Wings Of A Dove
TTITLE1=Jeannie Pruett - Old Time Religion
TTITLE2=Porter Wagoner - What Would You Do If Jesus Came To Your House
TTITLE3=Jack Greene - A Wonderful Time Up There
TTITLE4=Oak Ridge Boys - In The Shelter Of His Arms
TTITLE5=Holly Dunn - What A Friend We Have In Jesus
TTITLE6=Jeannie Pruett - Uncloudy Day
TTITLE7=Oak Ridge Boys - You'll Never Walk Alone
TTITLE8=Holly Dunn - Sweet Hour Of Prayer
TTITLE9=Holly Dunn - On The Wings Of An Angel
TTITLE10=Jeannie Pruett - Standing On The Promises
TTITLE11=Jack Greene - Why Me
EXTD=
EXTT0=
EXTT1=
EXTT2=
EXTT3=
EXTT4=
EXTT5=
EXTT6=
EXTT7=
EXTT8=
EXTT9=
EXTT10=
EXTT11=
PLAYORDER=
